<?xml version="1.0"?>
<svg xmlns="http://www.w3.org/2000/svg" viewBox="0 0 24 24" enable-background="new 0 0 24 24">
    <path d="M 7 3 C 5.9 3 5 3.9 5 5 L 5 19 C 5 20.1 5.9 21 7 21 L 17 21 C 18.1 21 19 20.1 19 19 L 19 5 C 19 3.9 18.1 3 17 3 L 7 3 z M 1 5 L 1 7 L 4 7 L 4 5 L 1 5 z M 10 5 C 11.1 5 12 5.9 12 7 C 12 8.1 11.1 9 10 9 C 8.9 9 8 8.1 8 7 C 8 5.9 8.9 5 10 5 z M 20 5 L 20 7 L 23 7 L 23 5 L 20 5 z M 1 9 L 1 11 L 4 11 L 4 9 L 1 9 z M 20 9 L 20 11 L 23 11 L 23 9 L 20 9 z M 1 13 L 1 15 L 4 15 L 4 13 L 1 13 z M 20 13 L 20 15 L 23 15 L 23 13 L 20 13 z M 1 17 L 1 19 L 4 19 L 4 17 L 1 17 z M 20 17 L 20 19 L 23 19 L 23 17 L 20 17 z"/>
</svg>
