<svg fill="#000000" xmlns="http://www.w3.org/2000/svg"  viewBox="0 0 24 24" width="24px" height="24px"><path fill-rule="nonzero" d="M2,14.77c0,-5.337 4.981,-10.653 9.655,-11.77c0,0 -2.069,1.644 -2.069,2.77c0,2.251 1.38,1.384 1.38,1.384c0,0 0,8.419 0,9c0,0.581 0.62,0.693 1.379,0.693c0.758,0 2.069,-0.929 2.069,-0.929c0,0 0,-6.582 0,-7.379c0,-0.798 -0.943,-1.701 -1.38,-2.077c1.168,0 2.069,0.692 2.069,0.692c0,0 0.888,-1.732 4.828,-2.769c-0.599,0.765 -2.047,2.811 -2.047,3.501c0,0.69 -0.022,7.433 -0.022,7.832c0,0.4 0.47,0.436 0.759,0.436c0.29,0 1.882,-0.419 3.379,-2.077c0,0.504 -2.492,4.264 -5.517,6.231l-2.069,-2.077l-2.069,2.769c0,0 -4.234,-0.509 -6.207,-3.462c0.532,0.08 1.379,0.143 1.379,-0.691c0,-0.835 0,-6.38 0,-6.924c0,-0.544 -0.253,-0.797 -0.723,-0.797c-0.469,0 -2.252,1.139 -4.794,5.644l0,0Z"/></svg>